<mxfile host="app.diagrams.net" modified="2024-04-04T19:23:35.373Z" agent="Mozilla/5.0 (Windows NT 10.0; Win64; x64) AppleWebKit/537.36 (KHTML, like Gecko) Chrome/123.0.0.0 Safari/537.36" etag="aLi49MULjuIZ0ZoKnu40" version="24.2.1" type="github">
  <diagram name="Page-1" id="vUjsx3hURYJCEDWVttNw">
    <mxGraphModel dx="1062" dy="2128" grid="1" gridSize="10" guides="1" tooltips="1" connect="1" arrows="1" fold="1" page="1" pageScale="1" pageWidth="850" pageHeight="1100" math="0" shadow="0">
      <root>
        <mxCell id="0" />
        <mxCell id="1" parent="0" />
        <mxCell id="Kv-7kJW0O-KeRWkfQSKk-10" value="" style="verticalLabelPosition=bottom;html=1;verticalAlign=top;align=center;strokeColor=none;fillColor=#00BEF2;shape=mxgraph.azure.user;" vertex="1" parent="1">
          <mxGeometry x="140" y="260" width="90" height="90" as="geometry" />
        </mxCell>
        <mxCell id="Kv-7kJW0O-KeRWkfQSKk-11" value="&lt;b&gt;&lt;font style=&quot;font-size: 14px;&quot;&gt;Search Service&lt;/font&gt;&lt;/b&gt;" style="rounded=1;whiteSpace=wrap;html=1;" vertex="1" parent="1">
          <mxGeometry x="490" y="290" width="140" height="60" as="geometry" />
        </mxCell>
        <mxCell id="Kv-7kJW0O-KeRWkfQSKk-14" value="&lt;b&gt;&lt;font style=&quot;font-size: 14px;&quot;&gt;Product DB&lt;/font&gt;&lt;/b&gt;" style="text;html=1;align=center;verticalAlign=middle;whiteSpace=wrap;rounded=0;" vertex="1" parent="1">
          <mxGeometry x="980" y="540" width="110" height="20" as="geometry" />
        </mxCell>
        <mxCell id="Kv-7kJW0O-KeRWkfQSKk-19" value="" style="shape=flexArrow;endArrow=classic;html=1;rounded=0;" edge="1" parent="1">
          <mxGeometry width="50" height="50" relative="1" as="geometry">
            <mxPoint x="240" y="310" as="sourcePoint" />
            <mxPoint x="470" y="310" as="targetPoint" />
          </mxGeometry>
        </mxCell>
        <mxCell id="Kv-7kJW0O-KeRWkfQSKk-20" value="" style="shape=flexArrow;endArrow=classic;html=1;rounded=0;" edge="1" parent="1">
          <mxGeometry width="50" height="50" relative="1" as="geometry">
            <mxPoint x="643" y="330" as="sourcePoint" />
            <mxPoint x="903" y="330" as="targetPoint" />
          </mxGeometry>
        </mxCell>
        <mxCell id="Kv-7kJW0O-KeRWkfQSKk-22" value="" style="shape=flexArrow;endArrow=classic;html=1;rounded=0;" edge="1" parent="1">
          <mxGeometry width="50" height="50" relative="1" as="geometry">
            <mxPoint x="550" y="370" as="sourcePoint" />
            <mxPoint x="990" y="500" as="targetPoint" />
            <Array as="points">
              <mxPoint x="550" y="500" />
            </Array>
          </mxGeometry>
        </mxCell>
        <mxCell id="Kv-7kJW0O-KeRWkfQSKk-27" value="" style="shape=cylinder3;whiteSpace=wrap;html=1;boundedLbl=1;backgroundOutline=1;size=15;" vertex="1" parent="1">
          <mxGeometry x="1000" y="450" width="60" height="80" as="geometry" />
        </mxCell>
        <mxCell id="Kv-7kJW0O-KeRWkfQSKk-29" value="" style="shape=cylinder3;whiteSpace=wrap;html=1;boundedLbl=1;backgroundOutline=1;size=15;" vertex="1" parent="1">
          <mxGeometry x="920" y="295" width="60" height="90" as="geometry" />
        </mxCell>
        <mxCell id="Kv-7kJW0O-KeRWkfQSKk-31" value="&lt;b&gt;&lt;font style=&quot;font-size: 14px;&quot;&gt;Search History DB&lt;/font&gt;&lt;/b&gt;" style="text;html=1;align=center;verticalAlign=middle;whiteSpace=wrap;rounded=0;" vertex="1" parent="1">
          <mxGeometry x="880" y="390" width="135" height="20" as="geometry" />
        </mxCell>
        <mxCell id="Kv-7kJW0O-KeRWkfQSKk-32" value="" style="shape=cylinder3;whiteSpace=wrap;html=1;boundedLbl=1;backgroundOutline=1;size=15;" vertex="1" parent="1">
          <mxGeometry x="743" y="92" width="60" height="90" as="geometry" />
        </mxCell>
        <mxCell id="Kv-7kJW0O-KeRWkfQSKk-33" value="&lt;b&gt;&lt;font style=&quot;font-size: 14px;&quot;&gt;Search Service&lt;/font&gt;&lt;/b&gt;" style="rounded=1;whiteSpace=wrap;html=1;" vertex="1" parent="1">
          <mxGeometry x="899" y="113" width="151" height="60" as="geometry" />
        </mxCell>
        <mxCell id="Kv-7kJW0O-KeRWkfQSKk-34" value="&lt;b&gt;&lt;font style=&quot;font-size: 14px;&quot;&gt;Search Service&lt;/font&gt;&lt;/b&gt;" style="rounded=1;whiteSpace=wrap;html=1;" vertex="1" parent="1">
          <mxGeometry x="487" y="112" width="140" height="60" as="geometry" />
        </mxCell>
        <mxCell id="Kv-7kJW0O-KeRWkfQSKk-35" value="" style="shape=flexArrow;endArrow=classic;html=1;rounded=0;" edge="1" parent="1">
          <mxGeometry width="50" height="50" relative="1" as="geometry">
            <mxPoint x="230" y="280" as="sourcePoint" />
            <mxPoint x="550" y="190" as="targetPoint" />
            <Array as="points">
              <mxPoint x="550" y="260" />
            </Array>
          </mxGeometry>
        </mxCell>
        <mxCell id="Kv-7kJW0O-KeRWkfQSKk-36" value="C" style="shape=flexArrow;endArrow=classic;html=1;rounded=0;" edge="1" parent="1">
          <mxGeometry width="50" height="50" relative="1" as="geometry">
            <mxPoint x="640" y="140" as="sourcePoint" />
            <mxPoint x="730" y="140" as="targetPoint" />
          </mxGeometry>
        </mxCell>
        <mxCell id="Kv-7kJW0O-KeRWkfQSKk-37" value="" style="shape=flexArrow;endArrow=classic;html=1;rounded=0;" edge="1" parent="1">
          <mxGeometry width="50" height="50" relative="1" as="geometry">
            <mxPoint x="890" y="150" as="sourcePoint" />
            <mxPoint x="810" y="150" as="targetPoint" />
          </mxGeometry>
        </mxCell>
        <mxCell id="Kv-7kJW0O-KeRWkfQSKk-38" value="" style="shape=flexArrow;endArrow=classic;html=1;rounded=0;" edge="1" parent="1">
          <mxGeometry width="50" height="50" relative="1" as="geometry">
            <mxPoint x="949.5" y="280" as="sourcePoint" />
            <mxPoint x="950" y="200" as="targetPoint" />
          </mxGeometry>
        </mxCell>
        <mxCell id="Kv-7kJW0O-KeRWkfQSKk-39" value="" style="shape=flexArrow;endArrow=classic;html=1;rounded=0;" edge="1" parent="1">
          <mxGeometry width="50" height="50" relative="1" as="geometry">
            <mxPoint x="1030" y="440" as="sourcePoint" />
            <mxPoint x="1030" y="182" as="targetPoint" />
          </mxGeometry>
        </mxCell>
        <mxCell id="Kv-7kJW0O-KeRWkfQSKk-41" value="&lt;b&gt;&lt;font style=&quot;font-size: 14px;&quot;&gt;Recommendation DB&lt;/font&gt;&lt;/b&gt;" style="text;html=1;align=center;verticalAlign=middle;whiteSpace=wrap;rounded=0;" vertex="1" parent="1">
          <mxGeometry x="690" y="182" width="155" height="38" as="geometry" />
        </mxCell>
        <mxCell id="Kv-7kJW0O-KeRWkfQSKk-42" value="&lt;b&gt;&lt;font style=&quot;font-size: 14px;&quot;&gt;AddToCart Service&lt;/font&gt;&lt;/b&gt;" style="rounded=1;whiteSpace=wrap;html=1;" vertex="1" parent="1">
          <mxGeometry x="562" y="-110" width="150" height="60" as="geometry" />
        </mxCell>
        <mxCell id="Kv-7kJW0O-KeRWkfQSKk-43" value="" style="shape=flexArrow;endArrow=classic;html=1;rounded=0;" edge="1" parent="1">
          <mxGeometry width="50" height="50" relative="1" as="geometry">
            <mxPoint x="640" y="295" as="sourcePoint" />
            <mxPoint x="670" y="-30" as="targetPoint" />
            <Array as="points">
              <mxPoint x="670" y="290" />
            </Array>
          </mxGeometry>
        </mxCell>
        <mxCell id="Kv-7kJW0O-KeRWkfQSKk-46" value="" style="shape=flexArrow;endArrow=classic;html=1;rounded=0;" edge="1" parent="1">
          <mxGeometry width="50" height="50" relative="1" as="geometry">
            <mxPoint x="590" y="100" as="sourcePoint" />
            <mxPoint x="590" y="-30" as="targetPoint" />
          </mxGeometry>
        </mxCell>
        <mxCell id="Kv-7kJW0O-KeRWkfQSKk-47" value="&lt;b&gt;&lt;font style=&quot;font-size: 14px;&quot;&gt;PlaceOrder Service&lt;/font&gt;&lt;/b&gt;" style="rounded=1;whiteSpace=wrap;html=1;" vertex="1" parent="1">
          <mxGeometry x="845" y="-110" width="150" height="60" as="geometry" />
        </mxCell>
        <mxCell id="Kv-7kJW0O-KeRWkfQSKk-48" value="" style="shape=cylinder3;whiteSpace=wrap;html=1;boundedLbl=1;backgroundOutline=1;size=15;" vertex="1" parent="1">
          <mxGeometry x="590" y="-377" width="60" height="97" as="geometry" />
        </mxCell>
        <mxCell id="Kv-7kJW0O-KeRWkfQSKk-49" value="" style="shape=cylinder3;whiteSpace=wrap;html=1;boundedLbl=1;backgroundOutline=1;size=15;" vertex="1" parent="1">
          <mxGeometry x="860" y="-370" width="60" height="90" as="geometry" />
        </mxCell>
        <mxCell id="Kv-7kJW0O-KeRWkfQSKk-51" value="C" style="shape=flexArrow;endArrow=classic;html=1;rounded=0;" edge="1" parent="1">
          <mxGeometry width="50" height="50" relative="1" as="geometry">
            <mxPoint x="730" y="-80.5" as="sourcePoint" />
            <mxPoint x="830" y="-80" as="targetPoint" />
          </mxGeometry>
        </mxCell>
        <mxCell id="Kv-7kJW0O-KeRWkfQSKk-50" value="" style="shape=flexArrow;endArrow=classic;html=1;rounded=0;" edge="1" parent="1">
          <mxGeometry width="50" height="50" relative="1" as="geometry">
            <mxPoint x="619.5" y="-130" as="sourcePoint" />
            <mxPoint x="619.5" y="-260" as="targetPoint" />
          </mxGeometry>
        </mxCell>
        <mxCell id="Kv-7kJW0O-KeRWkfQSKk-53" value="" style="shape=flexArrow;endArrow=classic;html=1;rounded=0;" edge="1" parent="1">
          <mxGeometry width="50" height="50" relative="1" as="geometry">
            <mxPoint x="627" y="-130" as="sourcePoint" />
            <mxPoint x="627.5" y="-230" as="targetPoint" />
          </mxGeometry>
        </mxCell>
        <mxCell id="Kv-7kJW0O-KeRWkfQSKk-52" value="&lt;span style=&quot;font-size: 14px;&quot;&gt;&lt;b&gt;Cart DB&lt;/b&gt;&lt;/span&gt;" style="text;html=1;align=center;verticalAlign=middle;whiteSpace=wrap;rounded=0;" vertex="1" parent="1">
          <mxGeometry x="551" y="-270" width="155" height="38" as="geometry" />
        </mxCell>
        <mxCell id="Kv-7kJW0O-KeRWkfQSKk-55" value="&lt;span style=&quot;font-size: 14px;&quot;&gt;&lt;b&gt;Order DB&lt;/b&gt;&lt;/span&gt;" style="text;html=1;align=center;verticalAlign=middle;whiteSpace=wrap;rounded=0;" vertex="1" parent="1">
          <mxGeometry x="820" y="-260" width="155" height="28" as="geometry" />
        </mxCell>
      </root>
    </mxGraphModel>
  </diagram>
</mxfile>
